# Alias OBJ Model File
# Exported from SketchUp, (c) 2000-2012 Trimble Navigation Limited
# File units = meters

mtllib Workshop+Table+A.mtl

g Mesh1 Group1 Model

usemtl Tool_Base
v 0.005 0.895 -0
vt 0.19685 -0.19685
vn -0.130526 0 0.991445
v 1.995 0.895 -0
vt 78.5433 -0.19685
vn 0.130526 0 0.991445
v 1.995 0.905 -0
vt 78.5433 0.19685
v 0.005 0.905 -0
vt 0.19685 0.19685
f 1/1/1 2/2/2 3/3/2 4/4/1 

usemtl Tool_Detail
v 0.005 0.895 -1
vt -0.19685 39.3701
vn 0 -1 -0
v 1.995 0.895 -1
vt -78.5433 39.3701
v 1.9975 0.895 -0.99933
vt -78.6417 39.3437
v 1.99933 0.895 -0.9975
vt -78.7138 39.2717
v 2 0.895 -0.995
vt -78.7402 39.1732
v 2 0.895 -0.005
vt -78.7402 0.19685
v 1.99933 0.895 -0.0025
vt -78.7138 0.0984252
v 1.9975 0.895 -0.000669873
vt -78.6417 0.026373
vt -78.5433 0
vt -0.19685 0
v 0.0025 0.895 -0.000669873
vt -0.0984252 0.026373
v 0.000669873 0.895 -0.0025
vt -0.026373 0.0984252
v 0 0.895 -0.005
vt 0 0.19685
v 0 0.895 -0.995
vt 0 39.1732
v 0.000669873 0.895 -0.9975
vt -0.026373 39.2717
v 0.0025 0.895 -0.99933
vt -0.0984252 39.3437
f 5/5/3 6/6/3 7/7/3 8/8/3 9/9/3 10/10/3 11/11/3 12/12/3 2/13/3 1/14/3 13/15/3 14/16/3 15/17/3 16/18/3 17/19/3 18/20/3 

usemtl Tool_Base
v 0.005 0.905 -1
vt -0.19685 0.19685
vn -0.130526 0 -0.991445
v 1.995 0.905 -1
vt -78.5433 0.19685
vn 0.130526 0 -0.991445
vt -78.5433 -0.19685
vt -0.19685 -0.19685
f 19/21/4 20/22/5 6/23/5 5/24/4 

usemtl Tool_Detail
vt 0.19685 0
vn 0 1 -0
vt 78.5433 0
v 1.9975 0.905 -0.000669873
vt 78.6417 0.026373
v 1.99933 0.905 -0.0025
vt 78.7138 0.0984252
v 2 0.905 -0.005
vt 78.7402 0.19685
v 2 0.905 -0.995
vt 78.7402 39.1732
v 1.99933 0.905 -0.9975
vt 78.7138 39.2717
v 1.9975 0.905 -0.99933
vt 78.6417 39.3437
vt 78.5433 39.3701
vt 0.19685 39.3701
v 0.0025 0.905 -0.99933
vt 0.0984252 39.3437
v 0.000669873 0.905 -0.9975
vt 0.026373 39.2717
v 0 0.905 -0.995
v 0 0.905 -0.005
v 0.000669873 0.905 -0.0025
vt 0.026373 0.0984252
v 0.0025 0.905 -0.000669873
vt 0.0984252 0.026373
f 4/25/6 3/26/6 21/27/6 22/28/6 23/29/6 24/30/6 25/31/6 26/32/6 20/33/6 19/34/6 27/35/6 28/36/6 29/18/6 30/17/6 31/37/6 32/38/6 

usemtl Tool_Base
vt 75.9689 -0.19685
vn 0.5 0 0.866025
vt 75.9689 0.19685
vt 75.867 0.19685
vt 75.867 -0.19685
f 12/39/7 21/40/7 3/41/2 2/42/2 

vt 55.7286 -0.19685
vn 0.866025 0 0.5
vt 55.7286 0.19685
vt 55.6268 0.19685
vt 55.6268 -0.19685
f 11/43/8 22/44/8 21/45/7 12/46/7 

vt 20.5696 -0.19685
vn 0.991445 0 0.130526
vt 20.5696 0.19685
vt 20.4677 0.19685
vt 20.4677 -0.19685
f 10/47/9 23/48/9 22/49/8 11/50/8 

vt 39.1732 -0.19685
vn 0.991445 0 -0.130526
vt 39.1732 0.19685
f 10/1/9 9/51/10 24/52/10 23/4/9 

vt 17.5609 -0.19685
vn 0.866025 0 -0.5
vt 17.5609 0.19685
vt 17.459 0.19685
vt 17.459 -0.19685
f 8/53/11 25/54/11 24/55/10 9/56/10 

vt -27.7879 -0.19685
vn 0.5 0 -0.866025
vt -27.7879 0.19685
vt -27.8898 0.19685
vt -27.8898 -0.19685
f 7/57/12 26/58/12 25/59/11 8/60/11 

vt -65.6773 -0.19685
vt -65.6773 0.19685
vt -65.7792 0.19685
vt -65.7792 -0.19685
f 6/61/5 20/62/5 26/63/12 7/64/12 

vt -10.278 -0.19685
vn -0.5 0 -0.866025
vt -10.278 0.19685
vt -10.3799 0.19685
vt -10.3799 -0.19685
f 18/65/13 27/66/13 19/67/4 5/68/4 

vn -0.866025 0 -0.5
f 17/57/14 28/58/14 27/59/13 18/60/13 

vt -37.8384 -0.19685
vn -0.991445 0 -0.130526
vt -37.8384 0.19685
vt -37.9403 0.19685
vt -37.9403 -0.19685
f 16/69/15 29/70/15 28/71/14 17/72/14 

vn -0.991445 0 0.130526
vt -39.1732 0.19685
vt -39.1732 -0.19685
f 30/21/16 29/73/15 16/74/15 15/24/16 

vt -0.190143 0.19685
vt -0.190143 -0.19685
vt -0.0882456 -0.19685
vn -0.866025 0 0.5
vt -0.0882456 0.19685
f 30/75/16 15/76/16 14/77/17 31/78/17 

vt -0.0509486 0.19685
vt -0.0509486 -0.19685
vt 0.0509486 -0.19685
vn -0.5 0 0.866025
vt 0.0509486 0.19685
f 31/79/17 14/80/17 13/81/18 32/82/18 

vt 0.0882456 0.19685
vt 0.0882456 -0.19685
vt 0.190143 -0.19685
vt 0.190143 0.19685
f 32/83/18 13/84/18 1/85/1 4/86/1 

g Mesh2 Group2 Model

v 0.03 0 -0.15
vt -1.1811 5.90551
v 0.15 0 -0.15
vt -5.90551 5.90551
v 0.15 0 -0.03
vt -5.90551 1.1811
v 0.03 0 -0.03
vt -1.1811 1.1811
f 33/87/3 34/88/3 35/89/3 36/90/3 

vt -5.90551 0
vn 0 0 -1
vt -1.1811 0
v 0.03 0.005 -0.15
vt -1.1811 0.19685
v 0.15 0.005 -0.15
vt -5.90551 0.19685
f 34/91/19 33/92/19 37/93/19 38/94/19 

vn -1 0 -0
v 0.03 0.005 -0.03
f 33/91/20 36/92/20 39/93/20 37/94/20 

vt 1.1811 0
vn 0 0 1
vt 5.90551 0
v 0.15 0.005 -0.03
vt 5.90551 0.19685
vt 1.1811 0.19685
f 36/95/21 35/96/21 40/97/21 39/98/21 

vn 1 0 -0
f 35/95/22 34/96/22 38/97/22 40/98/22 

vt 5.90551 5.90551
v 0.135 0.005 -0.135
vt 5.31496 5.31496
vt 5.90551 1.1811
f 38/99/6 41/100/6 40/101/6

v 0.045 0.005 -0.135
vt 1.77165 5.31496
f 38/99/6 42/102/6 41/100/6

vt 1.1811 5.90551
f 37/103/6 42/102/6 38/99/6

v 0.045 0.005 -0.045
vt 1.77165 1.77165
f 42/102/6 37/103/6 43/104/6

vt 1.1811 1.1811
f 39/105/6 43/104/6 37/103/6

f 43/104/6 39/105/6 40/101/6

v 0.135 0.005 -0.045
vt 5.31496 1.77165
f 43/104/6 40/101/6 44/106/6

f 44/106/6 40/101/6 41/100/6

vt 1.77165 -3.61905
vn 0.707107 0.707107 1.74648e-18
vt 5.31496 -3.61905
v 0.13 0.01 -0.13
vt 5.11811 -3.34066
v 0.13 0.01 -0.05
vt 1.9685 -3.34066
f 44/107/23 41/108/23 45/109/23 46/110/23 

vt -5.31496 -3.61905
vn -1.74648e-18 0.707107 -0.707107
vt -1.77165 -3.61905
v 0.05 0.01 -0.13
vt -1.9685 -3.34066
vt -5.11811 -3.34066
f 41/111/24 42/112/24 47/113/24 45/114/24 

vt -5.31496 1.39194
vn -0.707107 0.707107 1.74648e-18
vt -1.77165 1.39194
v 0.05 0.01 -0.05
vt -1.9685 1.67033
vt -5.11811 1.67033
f 42/115/25 43/116/25 48/117/25 47/118/25 

vt 1.77165 1.39194
vn -1.74648e-18 0.707107 0.707107
vt 5.31496 1.39194
vt 5.11811 1.67033
vt 1.9685 1.67033
f 43/119/26 44/120/26 46/121/26 48/122/26 

v 0.13 0.22 -0.05
vt 5.11811 8.66142
vn 1.80578e-17 7.52638e-17 1
vt 1.9685 0.393701
vt 5.11811 0.393701
f 49/123/27 48/124/27 46/125/27

v 0.05 0.895 -0.05
vt 1.9685 35.2362
f 48/124/27 49/123/27 50/126/27

v 0.13 0.3 -0.05
vt 5.11811 11.811
f 50/126/27 49/123/27 51/127/27

v 1.87 0.3 -0.05
vt 73.622 11.811
f 51/127/27 49/123/27 52/128/27

v 1.87 0.22 -0.05
vt 73.622 8.66142
f 53/129/27 52/128/27 49/123/27

v 1.95 0.895 -0.05
vt 76.7717 35.2362
f 53/129/27 54/130/27 52/128/27

v 1.87 0.01 -0.05
vt 73.622 0.393701
f 55/131/27 54/130/27 53/129/27

v 1.95 0.01 -0.05
vt 76.7717 0.393701
f 54/130/27 55/131/27 56/132/27

v 1.865 0.005 -0.045
vt 73.4252 1.39194
vn 0 0.707107 0.707107
v 1.955 0.005 -0.045
vt 76.9685 1.39194
vt 76.7717 1.67033
vt 73.622 1.67033
f 57/133/28 58/134/28 56/135/28 55/136/28 

vt 73.4252 1.77165
v 1.97 0.005 -0.03
vt 77.5591 1.1811
vt 76.9685 1.77165
f 57/137/6 59/138/6 58/139/6

v 1.85 0.005 -0.03
vt 72.8346 1.1811
f 57/137/6 60/140/6 59/138/6

v 1.85 0.005 -0.15
vt 72.8346 5.90551
f 60/140/6 57/137/6 61/141/6

v 1.865 0.005 -0.135
vt 73.4252 5.31496
f 62/142/6 61/141/6 57/137/6

v 1.97 0.005 -0.15
vt 77.5591 5.90551
f 61/141/6 62/142/6 63/143/6

v 1.955 0.005 -0.135
vt 76.9685 5.31496
f 63/143/6 62/142/6 64/144/6

vt -76.9685 -3.61905
vn 0 0.707107 -0.707107
vt -73.4252 -3.61905
v 1.87 0.01 -0.13
vt -73.622 -3.34066
v 1.95 0.01 -0.13
vt -76.7717 -3.34066
f 64/145/29 62/146/29 65/147/29 66/148/29 

vt -5.31496 52.0586
vn -0.707107 0.707107 -2.35805e-31
vt -1.77165 52.0586
vt -1.9685 52.337
vt -5.11811 52.337
f 62/149/30 57/150/30 55/151/30 65/152/30 

vt -1.9685 8.66142
vn -1 -3.43767e-15 2.472e-31
v 1.87 0.22 -0.13
vt -5.11811 8.66142
vt -5.11811 0.393701
vt -1.9685 0.393701
f 53/153/31 67/154/31 65/155/31 55/156/31 

v 1.87 0.22 -0.87
vt -73.622 34.252
v 1.04 0.22 -0.87
vt -40.9449 34.252
v 1.04 0.22 -0.13
vt -40.9449 5.11811
vt -73.622 5.11811
vt -73.622 1.9685
vt -5.11811 1.9685
v 0.13 0.22 -0.13
vt -5.11811 5.11811
v 0.96 0.22 -0.13
vt -37.7953 5.11811
v 0.96 0.22 -0.87
vt -37.7953 34.252
v 0.13 0.22 -0.87
vt -5.11811 34.252
v 0.13 0.22 -0.95
vt -5.11811 37.4016
v 1.87 0.22 -0.95
vt -73.622 37.4016
f 68/157/3 69/158/3 70/159/3 67/160/3 53/161/3 49/162/3 71/163/3 72/164/3 73/165/3 74/166/3 75/167/3 76/168/3 

vn -2.17443e-16 0 1
v 1.87 0.275 -0.87
vt 73.622 10.8268
v 1.04 0.275 -0.87
vt 40.9449 10.8268
vt 40.9449 8.66142
f 68/129/32 77/169/32 78/170/32 69/171/32 

vn -1 1.31306e-45 -9.75556e-16
v 1.87 0.275 -0.13
vt -5.11811 10.8268
vt -34.252 10.8268
vt -34.252 8.66142
f 67/154/33 79/172/33 77/173/33 68/174/33 

vt -40.9449 8.66142
v 1.04 0.275 -0.13
vt -40.9449 10.8268
vt -73.622 10.8268
vt -73.622 8.66142
f 70/175/19 80/176/19 79/177/19 67/178/19 

vt 34.252 8.66142
vt 34.252 10.8268
vt 5.11811 10.8268
f 69/179/22 78/180/22 80/181/22 70/123/22 

v 1.08 0.275 -0.83
vt -42.5197 32.6772
f 78/158/3 81/182/3 80/159/3

f 81/182/3 78/158/3 77/157/3

v 1.83 0.275 -0.83
vt -72.0472 32.6772
f 81/182/3 77/157/3 82/183/3

f 82/183/3 77/157/3 79/160/3

v 1.83 0.275 -0.17
vt -72.0472 6.69291
f 79/160/3 83/184/3 82/183/3

v 1.08 0.275 -0.17
vt -42.5197 6.69291
f 79/160/3 84/185/3 83/184/3

f 80/159/3 84/185/3 79/160/3

f 84/185/3 80/159/3 81/182/3

v 1.08 0.28 -0.83
vt 32.6772 11.0236
v 1.08 0.28 -0.17
vt 6.69291 11.0236
vt 6.69291 10.8268
vt 32.6772 10.8268
f 85/186/22 86/187/22 84/188/22 81/189/22 

vt 42.5197 32.6772
v 1.04 0.28 -0.87
vt 40.9449 34.252
vt 42.5197 6.69291
f 85/190/6 87/191/6 86/192/6

v 1.87 0.28 -0.87
vt 73.622 34.252
f 87/191/6 85/190/6 88/193/6

v 1.83 0.28 -0.83
vt 72.0472 32.6772
f 88/193/6 85/190/6 89/194/6

vt 72.0472 11.0236
vt 42.5197 11.0236
vt 42.5197 10.8268
vt 72.0472 10.8268
f 89/195/32 85/196/32 81/197/32 82/198/32 

vt -6.69291 10.8268
vn -1 5.5901e-30 -9.75556e-16
v 1.83 0.28 -0.17
vt -6.69291 11.0236
vt -32.6772 11.0236
vt -32.6772 10.8268
f 83/199/34 90/200/34 89/201/34 82/202/34 

vt -42.5197 10.8268
vt -42.5197 11.0236
vt -72.0472 11.0236
vt -72.0472 10.8268
f 84/203/19 86/204/19 90/205/19 83/206/19 

v 1.87 0.28 -0.13
vt 73.622 5.11811
vt 72.0472 6.69291
f 86/192/6 91/207/6 90/208/6

v 1.04 0.28 -0.13
vt 40.9449 5.11811
f 86/192/6 92/209/6 91/207/6

f 92/209/6 86/192/6 87/191/6

v 1.04 0.3 -0.13
vt 5.11811 11.0236
vt 34.252 11.0236
v 1.04 0.3 -0.87
vt 34.252 11.811
f 93/127/22 92/210/22 87/211/22 94/212/22 

v 1.87 0.3 -0.13
vt -73.622 11.811
vt -73.622 11.0236
vt -40.9449 11.0236
vt -40.9449 11.811
f 95/213/19 91/214/19 92/215/19 93/216/19 

v 1.87 0.3 -0.87
vt -34.252 11.811
vn -1 -1.39753e-30 -9.75556e-16
vt -34.252 11.0236
vt -5.11811 11.0236
vt -5.11811 11.811
f 96/217/35 88/218/35 91/219/35 95/220/35 

vt 40.9449 11.811
vt 40.9449 11.0236
vt 73.622 11.0236
f 94/221/32 87/222/32 88/223/32 96/128/32 

v 0.13 0.3 -0.87
vt 5.11811 34.252
v 0.96 0.3 -0.87
vt 37.7953 34.252
v 0.96 0.3 -0.13
vt 37.7953 5.11811
v 0.13 0.3 -0.13
vt 5.11811 5.11811
vt 5.11811 1.9685
vt 73.622 1.9685
v 1.87 0.3 -0.95
vt 73.622 37.4016
v 0.13 0.3 -0.95
vt 5.11811 37.4016
f 97/224/6 98/225/6 99/226/6 100/227/6 51/228/6 52/229/6 95/207/6 93/209/6 94/191/6 96/193/6 101/230/6 102/231/6 

vn -1.08807e-31 -9.02389e-15 1
v 0.13 0.28 -0.87
v 0.96 0.28 -0.87
vt 37.7953 11.0236
vt 37.7953 11.811
f 97/127/36 103/210/36 104/232/36 98/233/36 

vn 1 -4.51195e-14 -3.71762e-33
v 0.13 0.28 -0.13
f 100/127/37 105/210/37 103/211/37 97/212/37 

vt -37.7953 11.811
vn 2.60048e-33 9.02389e-15 -1
v 0.96 0.28 -0.13
vt -37.7953 11.0236
f 99/234/38 106/235/38 105/219/38 100/220/38 

vn -1 1.80478e-14 -4.87778e-16
f 98/217/39 104/218/39 106/219/39 99/220/39 

v 0.92 0.28 -0.83
vt 36.2205 32.6772
f 104/225/6 107/236/6 106/226/6

v 0.17 0.28 -0.83
vt 6.69291 32.6772
f 104/225/6 108/237/6 107/236/6

f 103/224/6 108/237/6 104/225/6

v 0.17 0.28 -0.17
vt 6.69291 6.69291
f 108/237/6 103/224/6 109/238/6

f 105/227/6 109/238/6 103/224/6

f 109/238/6 105/227/6 106/226/6

v 0.92 0.28 -0.17
vt 36.2205 6.69291
f 109/238/6 106/226/6 110/239/6

f 110/239/6 106/226/6 107/236/6

v 0.92 0.275 -0.83
v 0.92 0.275 -0.17
f 111/202/34 112/199/34 110/200/34 107/201/34 

v 0.96 0.275 -0.13
vt -36.2205 6.69291
vt -36.2205 32.6772
f 113/164/3 112/240/3 111/241/3

v 0.17 0.275 -0.17
vt -6.69291 6.69291
f 113/164/3 114/242/3 112/240/3

v 0.13 0.275 -0.13
f 115/163/3 114/242/3 113/164/3

v 0.17 0.275 -0.83
vt -6.69291 32.6772
f 114/242/3 115/163/3 116/243/3

v 0.13 0.275 -0.87
f 117/166/3 116/243/3 115/163/3

v 0.96 0.275 -0.87
f 116/243/3 117/166/3 118/165/3

vt 37.7953 8.66142
vn -1.16313e-31 3.28142e-15 1
vt 37.7953 10.8268
f 73/244/40 118/245/40 117/181/40 74/123/40 

vn -1 -6.56283e-15 -4.87778e-16
f 72/154/41 113/172/41 118/173/41 73/174/41 

vn -5.58782e-33 -3.28142e-15 -1
vt -37.7953 10.8268
vt -37.7953 8.66142
f 71/154/42 115/172/42 113/246/42 72/247/42 

vn 1 1.64071e-14 -2.94705e-32
f 74/179/43 117/180/43 115/181/43 71/123/43 

v 0.05 0.22 -0.87
vt -1.9685 34.252
v 0.05 0.22 -0.13
vt -1.9685 5.11811
f 119/248/3 74/166/3 71/163/3 120/249/3 

v 0.13 0.01 -0.87
vt 1.9685 8.66142
v 0.05 0.01 -0.87
f 121/125/21 74/123/21 119/250/21 122/124/21 

vt 34.252 0.393701
vn 1 -7.94962e-15 5.05736e-45
v 0.13 0.01 -0.95
vt 37.4016 0.393701
vt 37.4016 8.66142
f 121/251/44 123/252/44 75/253/44 74/179/44 

v 0.135 0.005 -0.865
vt 34.0551 -3.61905
vn 0.707107 0.707107 -0
v 0.135 0.005 -0.955
vt 37.5984 -3.61905
vt 37.4016 -3.34066
vt 34.252 -3.34066
f 124/254/45 125/255/45 123/256/45 121/257/45 

vt 5.31496 34.0551
v 0.15 0.005 -0.85
vt 5.90551 33.4646
vt 5.31496 37.5984
f 124/258/6 126/259/6 125/260/6

v 0.045 0.005 -0.865
vt 1.77165 34.0551
f 127/261/6 126/259/6 124/258/6

v 0.03 0.005 -0.85
vt 1.1811 33.4646
f 127/261/6 128/262/6 126/259/6

v 0.03 0.005 -0.97
vt 1.1811 38.189
f 128/262/6 127/261/6 129/263/6

v 0.045 0.005 -0.955
vt 1.77165 37.5984
f 130/264/6 129/263/6 127/261/6

v 0.15 0.005 -0.97
vt 5.90551 38.189
f 129/263/6 130/264/6 131/265/6

f 131/265/6 130/264/6 125/260/6

vt -5.31496 -26.4469
vt -1.77165 -26.4469
v 0.05 0.01 -0.95
vt -1.9685 -26.1685
vt -5.11811 -26.1685
f 125/266/24 130/267/24 132/268/24 123/269/24 

vt -37.5984 1.39194
vn -0.707107 0.707107 -0
vt -34.0551 1.39194
vt -34.252 1.67033
vt -37.4016 1.67033
f 130/270/46 127/271/46 122/272/46 132/273/46 

vt 1.77165 24.2198
vt 5.31496 24.2198
vt 5.11811 24.4982
vt 1.9685 24.4982
f 127/274/26 124/275/26 121/276/26 122/277/26 

vt -34.252 0.393701
v 0.05 0.895 -0.95
vt -37.4016 35.2362
vt -37.4016 0.393701
f 122/278/20 133/279/20 132/280/20

f 119/174/20 133/279/20 122/278/20

v 0.05 0.3 -0.87
f 134/217/20 133/279/20 119/174/20

v 0.05 0.815 -0.87
vt -34.252 32.0866
f 135/281/20 133/279/20 134/217/20

v 0.05 0.815 -0.13
vt -5.11811 32.0866
f 136/282/20 133/279/20 135/281/20

vt -1.9685 35.2362
f 136/282/20 50/283/20 133/279/20

f 50/283/20 136/282/20 48/156/20

f 136/282/20 47/155/20 48/156/20

v 0.05 0.3 -0.13
f 47/155/20 136/282/20 137/220/20

v 0.13 0.815 -0.13
vn -4.84544e-32 2.62832e-16 -1
vt -1.9685 11.811
vt -1.9685 32.0866
f 138/282/47 100/220/47 137/284/47 136/285/47 

v 0.13 0.815 -0.05
vt 1.9685 32.0866
vn 1 3.17588e-15 -1.40998e-16
vt 1.9685 11.811
vt 5.11811 32.0866
f 139/286/48 51/287/48 100/127/48 138/288/48 

f 50/126/27 51/127/27 139/288/27

v 1.87 0.815 -0.05
vt 73.622 32.0866
f 50/126/27 139/288/27 140/289/27

vn 4.14892e-16 -1 -5.7329e-32
v 1.87 0.815 -0.13
f 139/162/49 138/163/49 141/160/49 140/161/49 

vt -73.622 32.0866
vn -1.42619e-16 4.90661e-32 -1
v 0.13 0.895 -0.13
vt -5.11811 35.2362
v 1.87 0.895 -0.13
vt -73.622 35.2362
f 141/290/50 138/282/50 142/291/50 143/292/50 

vt 5.11811 35.2362
vn 1 1.40998e-16 -1.52431e-17
v 0.13 0.815 -0.87
vt 34.252 32.0866
v 0.13 0.895 -0.87
vt 34.252 35.2362
f 142/293/51 138/288/51 144/294/51 145/295/51 

f 138/163/3 136/249/3 135/248/3 144/166/3 

vn 1.29212e-31 -7.00885e-16 1
f 135/286/52 134/287/52 97/127/52 144/288/52 

vt 1.9685 34.252
vt 1.9685 5.11811
f 97/224/6 134/296/6 137/297/6 100/227/6 

f 134/217/20 120/154/20 137/220/20

f 120/154/20 134/217/20 119/174/20

f 47/155/20 137/220/20 120/154/20

vn 5.45294e-33 -6.44564e-16 -1
f 47/156/53 120/153/53 71/154/53 45/155/53 

vn 1 -7.94962e-15 7.30695e-31
f 46/124/54 45/125/54 71/123/54 49/250/54 

vn 1 5.47566e-16 1.70608e-14
vt 37.4016 11.811
v 0.13 0.815 -0.95
vt 37.4016 32.0866
f 144/294/55 97/212/55 102/298/55 146/299/55 

f 102/220/19 133/283/19 146/282/19

f 75/154/19 133/283/19 102/220/19

f 123/155/19 133/283/19 75/154/19

f 133/283/19 123/155/19 132/156/19

f 75/154/19 102/220/19 76/178/19

f 101/213/19 76/178/19 102/220/19

v 1.95 0.895 -0.95
vt -76.7717 35.2362
f 147/300/19 76/178/19 101/213/19

v 1.95 0.01 -0.95
vt -76.7717 0.393701
f 148/301/19 76/178/19 147/300/19

v 1.87 0.01 -0.95
vt -73.622 0.393701
f 76/178/19 148/301/19 149/302/19

v 1.955 0.005 -0.955
vt -76.9685 -26.4469
v 1.865 0.005 -0.955
vt -73.4252 -26.4469
vt -73.622 -26.1685
vt -76.7717 -26.1685
f 150/303/29 151/304/29 149/305/29 148/306/29 

v 1.97 0.005 -0.97
vt 77.5591 38.189
vt 73.4252 37.5984
vt 76.9685 37.5984
f 152/307/6 151/308/6 150/309/6

v 1.85 0.005 -0.97
vt 72.8346 38.189
f 153/310/6 151/308/6 152/307/6

v 1.865 0.005 -0.865
vt 73.4252 34.0551
f 151/308/6 153/310/6 154/311/6

v 1.85 0.005 -0.85
vt 72.8346 33.4646
f 155/312/6 154/311/6 153/310/6

v 1.97 0.005 -0.85
vt 77.5591 33.4646
f 154/311/6 155/312/6 156/313/6

v 1.85 0 -0.85
vt 72.8346 0
v 1.97 0 -0.85
vt 77.5591 0
vt 77.5591 0.19685
vt 72.8346 0.19685
f 157/314/21 158/315/21 156/316/21 155/317/21 

vt -72.8346 33.4646
v 1.85 0 -0.97
vt -72.8346 38.189
v 1.97 0 -0.97
vt -77.5591 38.189
vt -77.5591 33.4646
f 157/318/3 159/319/3 160/320/3 158/321/3 

vt -38.189 0
vt -33.4646 0
vt -33.4646 0.19685
vt -38.189 0.19685
f 159/322/20 157/323/20 155/324/20 153/325/20 

vt -77.5591 0
vt -72.8346 0
vt -72.8346 0.19685
vt -77.5591 0.19685
f 160/326/19 159/327/19 153/328/19 152/329/19 

vt 33.4646 0
vt 38.189 0
vt 38.189 0.19685
vt 33.4646 0.19685
f 158/330/22 160/331/22 152/332/22 156/333/22 

f 152/307/6 150/309/6 156/313/6

v 1.955 0.005 -0.865
vt 76.9685 34.0551
f 161/334/6 156/313/6 150/309/6

f 154/311/6 156/313/6 161/334/6

vt 73.4252 24.2198
vt 76.9685 24.2198
v 1.95 0.01 -0.87
vt 76.7717 24.4982
v 1.87 0.01 -0.87
vt 73.622 24.4982
f 154/335/28 161/336/28 162/337/28 163/338/28 

vt 34.0551 -54.2858
vn 0.707107 0.707107 6.35367e-30
vt 37.5984 -54.2858
vt 37.4016 -54.0074
vt 34.252 -54.0074
f 161/339/56 150/340/56 148/341/56 162/342/56 

v 1.95 0.815 -0.87
f 164/294/22 162/251/22 148/252/22

v 1.95 0.3 -0.87
f 165/212/22 162/251/22 164/294/22

v 1.95 0.22 -0.87
f 165/212/22 166/179/22 162/251/22

v 1.95 0.3 -0.13
f 167/127/22 166/179/22 165/212/22

v 1.95 0.22 -0.13
f 166/179/22 167/127/22 168/123/22

f 167/127/22 66/125/22 168/123/22

f 54/126/22 66/125/22 167/127/22

f 66/125/22 54/126/22 56/124/22

vt 1.77165 -54.2858
vn 0.707107 0.707107 -2.35805e-31
vt 5.31496 -54.2858
vt 5.11811 -54.0074
vt 1.9685 -54.0074
f 58/343/57 64/344/57 66/345/57 56/346/57 

f 58/139/6 59/138/6 64/144/6

f 63/143/6 64/144/6 59/138/6

v 1.97 0 -0.03
v 1.97 0 -0.15
f 169/95/22 170/96/22 63/97/22 59/98/22 

vt -77.5591 1.1811
v 1.85 0 -0.03
vt -72.8346 1.1811
v 1.85 0 -0.15
vt -72.8346 5.90551
vt -77.5591 5.90551
f 169/347/3 171/348/3 172/349/3 170/350/3 

f 171/314/21 169/315/21 59/316/21 60/317/21 

f 172/91/20 171/92/20 60/93/20 61/94/20 

f 170/326/19 172/327/19 61/328/19 63/329/19 

v 1.95 0.815 -0.13
f 54/126/22 167/127/22 173/288/22

vt -76.7717 32.0866
vn -8.02942e-33 -2.19027e-16 -1
vt -76.7717 11.811
f 173/351/58 167/352/58 95/213/58 141/290/58 

vt 76.7717 5.11811
vt 76.7717 34.252
f 95/207/6 167/353/6 165/354/6 96/193/6 

v 1.87 0.815 -0.87
vn -2.25597e-15 3.50442e-16 1
vt 76.7717 11.811
vt 76.7717 32.0866
f 174/289/59 96/128/59 165/355/59 164/356/59 

v 1.87 0.815 -0.95
vt -37.4016 32.0866
vt -37.4016 11.811
f 175/357/20 101/358/20 96/217/20 174/281/20 

f 147/300/19 101/213/19 175/290/19

f 147/300/19 175/290/19 133/283/19

f 146/282/19 133/283/19 175/290/19

vn 2.07446e-16 -1 -4.51195e-15
f 175/168/60 174/157/60 144/166/60 146/167/60 

vn 1.03723e-16 2.25597e-15 1
v 1.87 0.895 -0.87
vt 73.622 35.2362
f 174/289/61 176/359/61 145/293/61 144/288/61 

vt -34.252 35.2362
f 141/282/20 143/291/20 176/360/20 174/281/20 

vt -76.7717 5.11811
vt -76.7717 34.252
f 173/361/3 141/160/3 174/157/3 164/362/3 

vt 37.4016 35.2362
f 147/363/22 173/288/22 164/294/22

f 54/126/22 173/288/22 147/363/22

f 147/363/22 164/294/22 148/252/22

vn -1 1.40177e-15 -2.56941e-32
f 141/282/62 95/220/62 52/284/62 140/285/62 

f 52/128/27 54/130/27 140/289/27

f 50/126/27 140/289/27 54/130/27

vn 1.63588e-32 -6.44564e-16 -1
vt -76.7717 8.66142
f 65/302/63 67/178/63 168/364/63 66/301/63 

f 168/361/3 67/160/3 68/157/3 166/362/3 

vn -2.25597e-15 -8.59418e-16 1
vt 76.7717 8.66142
f 162/132/64 166/365/64 68/129/64 163/131/64 

vt -37.4016 8.66142
f 68/174/20 76/366/20 149/280/20 163/278/20 

vt -37.5984 52.0586
vn -0.707107 0.707107 6.35367e-30
vt -34.0551 52.0586
vt -34.252 52.337
vt -37.4016 52.337
f 151/367/65 154/368/65 163/369/65 149/370/65 

f 131/265/6 125/260/6 126/259/6

v 0.15 0 -0.85
v 0.15 0 -0.97
f 177/330/22 178/331/22 131/332/22 126/333/22 

v 0.03 0 -0.97
vt -1.1811 38.189
vt -5.90551 38.189
vt -5.90551 33.4646
v 0.03 0 -0.85
vt -1.1811 33.4646
f 179/371/3 178/372/3 177/373/3 180/374/3 

f 178/91/19 179/92/19 129/93/19 131/94/19 

f 179/322/20 180/323/20 128/324/20 129/325/20 

f 180/95/21 177/96/21 126/97/21 128/98/21 

f 111/241/3 118/165/3 113/164/3

f 116/243/3 118/165/3 111/241/3

vt 36.2205 10.8268
vt 36.2205 11.0236
f 116/188/32 111/375/32 107/376/32 108/187/32 

f 109/187/22 114/188/22 116/189/22 108/186/22 

vt -36.2205 10.8268
vt -36.2205 11.0236
f 112/377/19 114/199/19 109/200/19 110/378/19 

f 88/193/6 89/194/6 91/207/6

f 90/208/6 91/207/6 89/194/6

g Mesh3 Group3 Model

usemtl Tool_Wood
v 1.87 0.28 -0.87
vt -32.6772 29.1339
vt -32.6772 0
vt 0 0
vt 0 29.1339
f 181/379/3 91/380/3 92/381/3 87/382/3 

g Mesh4 Group3 Model

v 0.96 0.28 -0.87
vt 3.14961 29.1339
v 0.96 0.28 -0.13
vt 3.14961 7.10543e-15
v 0.13 0.28 -0.13
vt 35.8268 7.10543e-15
v 0.13 0.28 -0.87
vt 35.8268 29.1339
f 182/383/3 183/384/3 184/385/3 185/386/3 

g Mesh5 Group3 Model

vt 32.6772 0
v 1.87 0.3 -0.87
vt 32.6772 29.1339
f 95/387/6 186/388/6 94/382/6 93/381/6 

g Mesh6 Group3 Model

v 0.96 0.3 -0.13
vt -3.14961 7.10543e-15
v 0.96 0.3 -0.87
vt -3.14961 29.1339
v 0.13 0.3 -0.87
vt -35.8268 29.1339
v 0.13 0.3 -0.13
vt -35.8268 7.10543e-15
f 187/389/6 188/390/6 189/391/6 190/392/6 

